<?xml version="1.0" encoding="UTF-8"?>
<svg xmlns="http://www.w3.org/2000/svg" xmlns:xlink="http://www.w3.org/1999/xlink" width="1440pt" height="809.999993pt" viewBox="0 0 1440 809.999993" version="1.2">
<defs>
<clipPath id="clip1">
  <path d="M 57 84 L 83 84 L 83 110 L 57 110 Z M 57 84 "/>
</clipPath>
<clipPath id="clip2">
  <path d="M 60.355469 83.675781 L 83.433594 86.503906 L 80.605469 109.582031 L 57.527344 106.753906 Z M 60.355469 83.675781 "/>
</clipPath>
<clipPath id="clip3">
  <path d="M 60.355469 83.675781 L 83.433594 86.503906 L 80.605469 109.582031 L 57.527344 106.753906 Z M 60.355469 83.675781 "/>
</clipPath>
<clipPath id="clip4">
  <path d="M 1347 651 L 1376 651 L 1376 679 L 1347 679 Z M 1347 651 "/>
</clipPath>
<clipPath id="clip5">
  <path d="M 1346.601562 658.09375 L 1368.554688 650.4375 L 1376.210938 672.390625 L 1354.257812 680.046875 Z M 1346.601562 658.09375 "/>
</clipPath>
<clipPath id="clip6">
  <path d="M 1346.601562 658.09375 L 1368.554688 650.4375 L 1376.210938 672.390625 L 1354.257812 680.046875 Z M 1346.601562 658.09375 "/>
</clipPath>
<clipPath id="clip7">
  <path d="M 1387 404 L 1417 404 L 1417 433 L 1387 433 Z M 1387 404 "/>
</clipPath>
<clipPath id="clip8">
  <path d="M 1385.855469 415.5625 L 1404.742188 402.003906 L 1418.300781 420.890625 L 1399.414062 434.449219 Z M 1385.855469 415.5625 "/>
</clipPath>
<clipPath id="clip9">
  <path d="M 1385.855469 415.5625 L 1404.742188 402.003906 L 1418.300781 420.890625 L 1399.414062 434.449219 Z M 1385.855469 415.5625 "/>
</clipPath>
<clipPath id="clip10">
  <path d="M 1300 82 L 1329 82 L 1329 110 L 1300 110 Z M 1300 82 "/>
</clipPath>
<clipPath id="clip11">
  <path d="M 1299.738281 89.285156 L 1321.453125 80.980469 L 1329.757812 102.695312 L 1308.042969 111 Z M 1299.738281 89.285156 "/>
</clipPath>
<clipPath id="clip12">
  <path d="M 1299.738281 89.285156 L 1321.453125 80.980469 L 1329.757812 102.695312 L 1308.042969 111 Z M 1299.738281 89.285156 "/>
</clipPath>
<clipPath id="clip13">
  <path d="M 74 652 L 103 652 L 103 681 L 74 681 Z M 74 652 "/>
</clipPath>
<clipPath id="clip14">
  <path d="M 86.214844 650.488281 L 104.996094 664.195312 L 91.292969 682.976562 L 72.511719 669.269531 Z M 86.214844 650.488281 "/>
</clipPath>
<clipPath id="clip15">
  <path d="M 86.214844 650.488281 L 104.996094 664.195312 L 91.292969 682.976562 L 72.511719 669.269531 Z M 86.214844 650.488281 "/>
</clipPath>
<clipPath id="clip16">
  <path d="M 36 352 L 64 352 L 64 380 L 36 380 Z M 36 352 "/>
</clipPath>
<clipPath id="clip17">
  <path d="M 34.9375 359.503906 L 56.652344 351.199219 L 64.960938 372.917969 L 43.242188 381.222656 Z M 34.9375 359.503906 "/>
</clipPath>
<clipPath id="clip18">
  <path d="M 34.9375 359.503906 L 56.652344 351.199219 L 64.960938 372.917969 L 43.242188 381.222656 Z M 34.9375 359.503906 "/>
</clipPath>
</defs>
<g id="surface1">
<rect x="0" y="0" width="1440" height="809.999993" style="fill:rgb(100%,100%,100%);fill-opacity:1;stroke:none;"/>
<rect x="0" y="0" width="1440" height="809.999993" style="fill:rgb(100%,100%,100%);fill-opacity:1;stroke:none;"/>
<rect x="0" y="0" width="1440" height="809.999993" style="fill:rgb(5.099487%,17.248535%,25.878906%);fill-opacity:1;stroke:none;"/>
<g clip-path="url(#clip1)" clip-rule="nonzero">
<g clip-path="url(#clip2)" clip-rule="nonzero">
<g clip-path="url(#clip3)" clip-rule="nonzero">
<path style=" stroke:none;fill-rule:nonzero;fill:rgb(100%,56.858826%,0%);fill-opacity:1;" d="M 74.117188 97.074219 L 82.757812 90.339844 C 82.984375 90.164062 83.023438 89.835938 82.847656 89.609375 L 80.273438 86.324219 C 80.1875 86.21875 80.0625 86.148438 79.925781 86.128906 C 79.789062 86.113281 79.648438 86.152344 79.539062 86.234375 L 70.902344 92.96875 L 64.148438 84.347656 C 63.976562 84.132812 63.632812 84.089844 63.414062 84.257812 L 60.125 86.824219 C 60.015625 86.910156 59.945312 87.035156 59.925781 87.171875 C 59.910156 87.308594 59.949219 87.445312 60.035156 87.554688 L 66.789062 96.175781 L 58.152344 102.910156 C 58.042969 102.996094 57.972656 103.117188 57.953125 103.257812 C 57.9375 103.394531 57.976562 103.53125 58.0625 103.640625 L 60.636719 106.925781 C 60.722656 107.039062 60.851562 107.105469 60.984375 107.121094 C 61.117188 107.136719 61.253906 107.101562 61.367188 107.015625 L 70.003906 100.28125 L 76.761719 108.902344 C 76.9375 109.128906 77.265625 109.167969 77.492188 108.992188 L 80.785156 106.425781 C 81.011719 106.25 81.050781 105.921875 80.875 105.695312 Z M 74.117188 97.074219 "/>
</g>
</g>
</g>
<g clip-path="url(#clip4)" clip-rule="nonzero">
<g clip-path="url(#clip5)" clip-rule="nonzero">
<g clip-path="url(#clip6)" clip-rule="nonzero">
<path style=" stroke:none;fill-rule:nonzero;fill:rgb(86.268616%,23.529053%,30.198669%);fill-opacity:1;" d="M 1364.867188 664.035156 L 1369.640625 654.179688 C 1369.765625 653.917969 1369.660156 653.609375 1369.398438 653.484375 L 1365.640625 651.671875 C 1365.515625 651.613281 1365.371094 651.605469 1365.242188 651.652344 C 1365.109375 651.695312 1365.003906 651.792969 1364.941406 651.917969 L 1360.167969 661.773438 L 1350.300781 657.023438 C 1350.050781 656.902344 1349.722656 657.019531 1349.601562 657.265625 L 1347.785156 661.023438 C 1347.722656 661.148438 1347.714844 661.289062 1347.761719 661.421875 C 1347.804688 661.550781 1347.902344 661.65625 1348.027344 661.71875 L 1357.894531 666.46875 L 1353.121094 676.324219 C 1353.0625 676.449219 1353.050781 676.589844 1353.097656 676.722656 C 1353.144531 676.851562 1353.238281 676.960938 1353.363281 677.019531 L 1357.125 678.828125 C 1357.253906 678.890625 1357.394531 678.894531 1357.523438 678.851562 C 1357.648438 678.804688 1357.757812 678.714844 1357.820312 678.585938 L 1362.59375 668.726562 L 1372.464844 673.476562 C 1372.722656 673.601562 1373.035156 673.492188 1373.160156 673.234375 L 1374.980469 669.480469 C 1375.105469 669.21875 1374.996094 668.910156 1374.734375 668.785156 Z M 1364.867188 664.035156 "/>
</g>
</g>
</g>
<g clip-path="url(#clip7)" clip-rule="nonzero">
<g clip-path="url(#clip8)" clip-rule="nonzero">
<g clip-path="url(#clip9)" clip-rule="nonzero">
<path style=" stroke:none;fill-rule:nonzero;fill:rgb(100%,56.858826%,0%);fill-opacity:1;" d="M 1405.058594 416.089844 L 1406.84375 405.285156 C 1406.890625 405 1406.699219 404.730469 1406.414062 404.683594 L 1402.296875 404.015625 C 1402.160156 403.992188 1402.023438 404.023438 1401.910156 404.105469 C 1401.796875 404.1875 1401.722656 404.308594 1401.699219 404.445312 L 1399.910156 415.25 L 1389.101562 413.488281 C 1388.828125 413.445312 1388.546875 413.644531 1388.5 413.917969 L 1387.820312 418.035156 C 1387.796875 418.171875 1387.828125 418.3125 1387.910156 418.421875 C 1387.988281 418.535156 1388.113281 418.613281 1388.25 418.632812 L 1399.058594 420.394531 L 1397.269531 431.199219 C 1397.246094 431.335938 1397.277344 431.476562 1397.359375 431.589844 C 1397.441406 431.699219 1397.5625 431.777344 1397.699219 431.796875 L 1401.816406 432.46875 C 1401.957031 432.492188 1402.097656 432.457031 1402.207031 432.378906 C 1402.3125 432.300781 1402.394531 432.179688 1402.417969 432.039062 L 1404.203125 421.234375 L 1415.015625 422.996094 C 1415.300781 423.039062 1415.566406 422.847656 1415.613281 422.5625 L 1416.296875 418.449219 C 1416.34375 418.164062 1416.152344 417.894531 1415.867188 417.851562 Z M 1405.058594 416.089844 "/>
</g>
</g>
</g>
<g clip-path="url(#clip10)" clip-rule="nonzero">
<g clip-path="url(#clip11)" clip-rule="nonzero">
<g clip-path="url(#clip12)" clip-rule="nonzero">
<path style=" stroke:none;fill-rule:nonzero;fill:rgb(45.878601%,78.039551%,98.429871%);fill-opacity:1;" d="M 1318.171875 94.679688 L 1322.652344 84.6875 C 1322.769531 84.425781 1322.652344 84.117188 1322.390625 84 L 1318.578125 82.300781 C 1318.453125 82.246094 1318.308594 82.242188 1318.179688 82.292969 C 1318.050781 82.339844 1317.945312 82.441406 1317.886719 82.566406 L 1313.410156 92.558594 L 1303.402344 88.105469 C 1303.152344 87.992188 1302.828125 88.117188 1302.714844 88.371094 L 1301.007812 92.175781 C 1300.949219 92.304688 1300.945312 92.445312 1300.996094 92.574219 C 1301.046875 92.703125 1301.144531 92.808594 1301.269531 92.863281 L 1311.277344 97.320312 L 1306.796875 107.3125 C 1306.738281 107.441406 1306.734375 107.582031 1306.785156 107.710938 C 1306.835938 107.839844 1306.933594 107.945312 1307.058594 108 L 1310.871094 109.699219 C 1311.003906 109.757812 1311.144531 109.757812 1311.269531 109.707031 C 1311.394531 109.660156 1311.5 109.566406 1311.558594 109.433594 L 1316.039062 99.441406 L 1326.046875 103.894531 C 1326.308594 104.011719 1326.617188 103.894531 1326.734375 103.628906 L 1328.441406 99.824219 C 1328.558594 99.5625 1328.441406 99.253906 1328.179688 99.136719 Z M 1318.171875 94.679688 "/>
</g>
</g>
</g>
<g clip-path="url(#clip13)" clip-rule="nonzero">
<g clip-path="url(#clip14)" clip-rule="nonzero">
<g clip-path="url(#clip15)" clip-rule="nonzero">
<path style=" stroke:none;fill-rule:nonzero;fill:rgb(45.878601%,78.039551%,98.429871%);fill-opacity:1;" d="M 91.714844 668.894531 L 102.539062 667.214844 C 102.824219 667.171875 103.019531 666.90625 102.972656 666.621094 L 102.324219 662.5 C 102.300781 662.363281 102.226562 662.242188 102.117188 662.160156 C 102.003906 662.078125 101.863281 662.042969 101.726562 662.066406 L 90.90625 663.742188 L 89.199219 652.921875 C 89.15625 652.652344 88.875 652.445312 88.601562 652.488281 L 84.480469 653.128906 C 84.34375 653.148438 84.21875 653.222656 84.140625 653.335938 C 84.058594 653.445312 84.023438 653.585938 84.046875 653.722656 L 85.75 664.539062 L 74.929688 666.21875 C 74.789062 666.238281 74.667969 666.3125 74.585938 666.425781 C 74.503906 666.539062 74.472656 666.675781 74.492188 666.8125 L 75.144531 670.933594 C 75.167969 671.078125 75.242188 671.195312 75.351562 671.277344 C 75.460938 671.355469 75.597656 671.390625 75.738281 671.371094 L 86.5625 669.691406 L 88.269531 680.511719 C 88.3125 680.796875 88.578125 680.992188 88.863281 680.945312 L 92.988281 680.308594 C 93.273438 680.261719 93.464844 679.996094 93.421875 679.710938 Z M 91.714844 668.894531 "/>
</g>
</g>
</g>
<g clip-path="url(#clip16)" clip-rule="nonzero">
<g clip-path="url(#clip17)" clip-rule="nonzero">
<g clip-path="url(#clip18)" clip-rule="nonzero">
<path style=" stroke:none;fill-rule:nonzero;fill:rgb(100%,100%,100%);fill-opacity:1;" d="M 53.375 364.902344 L 57.851562 354.90625 C 57.96875 354.644531 57.851562 354.335938 57.589844 354.21875 L 53.777344 352.523438 C 53.652344 352.464844 53.507812 352.460938 53.378906 352.511719 C 53.25 352.5625 53.144531 352.660156 53.089844 352.785156 L 48.609375 362.78125 L 38.605469 358.324219 C 38.351562 358.214844 38.027344 358.335938 37.914062 358.589844 L 36.207031 362.398438 C 36.152344 362.523438 36.148438 362.667969 36.195312 362.796875 C 36.246094 362.925781 36.34375 363.027344 36.46875 363.085938 L 46.476562 367.539062 L 41.996094 377.535156 C 41.941406 377.660156 41.9375 377.800781 41.984375 377.933594 C 42.035156 378.0625 42.132812 378.164062 42.257812 378.222656 L 46.070312 379.917969 C 46.203125 379.976562 46.34375 379.976562 46.46875 379.929688 C 46.59375 379.878906 46.703125 379.785156 46.761719 379.652344 L 51.238281 369.660156 L 61.246094 374.113281 C 61.507812 374.230469 61.816406 374.113281 61.933594 373.851562 L 63.640625 370.042969 C 63.757812 369.78125 63.640625 369.472656 63.378906 369.355469 Z M 53.375 364.902344 "/>
</g>
</g>
</g>
<path style=" stroke:none;fill-rule:nonzero;fill:rgb(86.268616%,23.529053%,30.198669%);fill-opacity:1;" d="M 34.9375 124.652344 C 34.539062 124.652344 34.140625 124.691406 33.75 124.769531 C 33.359375 124.847656 32.980469 124.960938 32.609375 125.113281 C 32.242188 125.265625 31.890625 125.453125 31.558594 125.675781 C 31.226562 125.898438 30.921875 126.148438 30.636719 126.433594 C 30.355469 126.714844 30.101562 127.023438 29.882812 127.355469 C 29.660156 127.6875 29.472656 128.035156 29.320312 128.40625 C 29.167969 128.773438 29.050781 129.152344 28.972656 129.546875 C 28.894531 129.9375 28.855469 130.332031 28.855469 130.730469 C 28.855469 131.132812 28.894531 131.527344 28.972656 131.917969 C 29.050781 132.308594 29.167969 132.691406 29.320312 133.058594 C 29.472656 133.425781 29.660156 133.777344 29.882812 134.109375 C 30.101562 134.441406 30.355469 134.75 30.636719 135.03125 C 30.921875 135.3125 31.226562 135.566406 31.558594 135.789062 C 31.890625 136.007812 32.242188 136.195312 32.609375 136.347656 C 32.980469 136.5 33.359375 136.617188 33.75 136.695312 C 34.140625 136.773438 34.539062 136.8125 34.9375 136.8125 C 35.335938 136.8125 35.730469 136.773438 36.125 136.695312 C 36.515625 136.617188 36.894531 136.5 37.265625 136.347656 C 37.632812 136.195312 37.984375 136.007812 38.316406 135.789062 C 38.648438 135.566406 38.953125 135.3125 39.238281 135.03125 C 39.519531 134.75 39.769531 134.441406 39.992188 134.109375 C 40.214844 133.777344 40.402344 133.425781 40.554688 133.058594 C 40.707031 132.691406 40.824219 132.308594 40.902344 131.917969 C 40.976562 131.527344 41.015625 131.132812 41.015625 130.730469 C 41.015625 130.332031 40.976562 129.9375 40.902344 129.546875 C 40.824219 129.152344 40.707031 128.773438 40.554688 128.40625 C 40.402344 128.035156 40.214844 127.6875 39.992188 127.355469 C 39.769531 127.023438 39.519531 126.714844 39.238281 126.433594 C 38.953125 126.148438 38.648438 125.898438 38.316406 125.675781 C 37.984375 125.453125 37.632812 125.265625 37.265625 125.113281 C 36.894531 124.960938 36.515625 124.847656 36.125 124.769531 C 35.730469 124.691406 35.335938 124.652344 34.9375 124.652344 Z M 34.9375 124.652344 "/>
<path style=" stroke:none;fill-rule:nonzero;fill:rgb(86.268616%,23.529053%,30.198669%);fill-opacity:1;" d="M 1412.183594 126.234375 C 1411.785156 126.234375 1411.386719 126.273438 1410.996094 126.351562 C 1410.605469 126.425781 1410.226562 126.542969 1409.855469 126.695312 C 1409.488281 126.847656 1409.136719 127.035156 1408.804688 127.257812 C 1408.472656 127.480469 1408.164062 127.730469 1407.882812 128.011719 C 1407.601562 128.296875 1407.347656 128.601562 1407.128906 128.933594 C 1406.90625 129.265625 1406.71875 129.617188 1406.566406 129.984375 C 1406.414062 130.355469 1406.296875 130.734375 1406.21875 131.125 C 1406.140625 131.519531 1406.101562 131.914062 1406.101562 132.3125 C 1406.101562 132.710938 1406.140625 133.109375 1406.21875 133.5 C 1406.296875 133.890625 1406.414062 134.269531 1406.566406 134.640625 C 1406.71875 135.007812 1406.90625 135.359375 1407.128906 135.691406 C 1407.347656 136.023438 1407.601562 136.328125 1407.882812 136.613281 C 1408.164062 136.894531 1408.472656 137.148438 1408.804688 137.367188 C 1409.136719 137.589844 1409.488281 137.777344 1409.855469 137.929688 C 1410.226562 138.082031 1410.605469 138.199219 1410.996094 138.277344 C 1411.386719 138.355469 1411.785156 138.394531 1412.183594 138.394531 C 1412.582031 138.394531 1412.976562 138.355469 1413.367188 138.277344 C 1413.761719 138.199219 1414.140625 138.082031 1414.507812 137.929688 C 1414.878906 137.777344 1415.230469 137.589844 1415.5625 137.367188 C 1415.894531 137.148438 1416.199219 136.894531 1416.480469 136.613281 C 1416.765625 136.328125 1417.015625 136.023438 1417.238281 135.691406 C 1417.460938 135.359375 1417.648438 135.007812 1417.800781 134.640625 C 1417.953125 134.269531 1418.070312 133.890625 1418.144531 133.5 C 1418.222656 133.109375 1418.261719 132.710938 1418.261719 132.3125 C 1418.261719 131.914062 1418.222656 131.519531 1418.144531 131.125 C 1418.070312 130.734375 1417.953125 130.355469 1417.800781 129.984375 C 1417.648438 129.617188 1417.460938 129.265625 1417.238281 128.933594 C 1417.015625 128.601562 1416.765625 128.296875 1416.480469 128.011719 C 1416.199219 127.730469 1415.894531 127.480469 1415.5625 127.257812 C 1415.230469 127.035156 1414.878906 126.847656 1414.507812 126.695312 C 1414.140625 126.542969 1413.761719 126.425781 1413.367188 126.351562 C 1412.976562 126.273438 1412.582031 126.234375 1412.183594 126.234375 Z M 1412.183594 126.234375 "/>
<path style=" stroke:none;fill-rule:nonzero;fill:rgb(45.878601%,78.039551%,98.429871%);fill-opacity:1;" d="M 1390.496094 361.003906 C 1390.097656 361.003906 1389.703125 361.042969 1389.3125 361.121094 C 1388.917969 361.199219 1388.539062 361.316406 1388.171875 361.46875 C 1387.800781 361.621094 1387.449219 361.808594 1387.117188 362.03125 C 1386.785156 362.25 1386.480469 362.503906 1386.199219 362.785156 C 1385.914062 363.066406 1385.664062 363.375 1385.441406 363.707031 C 1385.21875 364.039062 1385.03125 364.390625 1384.878906 364.757812 C 1384.726562 365.125 1384.613281 365.507812 1384.535156 365.898438 C 1384.457031 366.289062 1384.417969 366.6875 1384.417969 367.085938 C 1384.417969 367.484375 1384.457031 367.878906 1384.535156 368.269531 C 1384.613281 368.664062 1384.726562 369.042969 1384.878906 369.410156 C 1385.03125 369.78125 1385.21875 370.128906 1385.441406 370.460938 C 1385.664062 370.792969 1385.914062 371.101562 1386.199219 371.382812 C 1386.480469 371.667969 1386.785156 371.917969 1387.117188 372.140625 C 1387.449219 372.363281 1387.800781 372.550781 1388.171875 372.703125 C 1388.539062 372.855469 1388.917969 372.96875 1389.3125 373.046875 C 1389.703125 373.125 1390.097656 373.164062 1390.496094 373.164062 C 1390.894531 373.164062 1391.292969 373.125 1391.683594 373.046875 C 1392.074219 372.96875 1392.453125 372.855469 1392.824219 372.703125 C 1393.191406 372.550781 1393.542969 372.363281 1393.875 372.140625 C 1394.207031 371.917969 1394.515625 371.667969 1394.796875 371.382812 C 1395.078125 371.101562 1395.332031 370.792969 1395.550781 370.460938 C 1395.773438 370.128906 1395.960938 369.78125 1396.113281 369.410156 C 1396.265625 369.042969 1396.382812 368.664062 1396.460938 368.269531 C 1396.539062 367.878906 1396.578125 367.484375 1396.578125 367.085938 C 1396.578125 366.6875 1396.539062 366.289062 1396.460938 365.898438 C 1396.382812 365.507812 1396.265625 365.125 1396.113281 364.757812 C 1395.960938 364.390625 1395.773438 364.039062 1395.550781 363.707031 C 1395.332031 363.375 1395.078125 363.066406 1394.796875 362.785156 C 1394.515625 362.503906 1394.207031 362.25 1393.875 362.03125 C 1393.542969 361.808594 1393.191406 361.621094 1392.824219 361.46875 C 1392.453125 361.316406 1392.074219 361.199219 1391.683594 361.121094 C 1391.292969 361.042969 1390.894531 361.003906 1390.496094 361.003906 Z M 1390.496094 361.003906 "/>
<path style=" stroke:none;fill-rule:nonzero;fill:rgb(100%,56.858826%,0%);fill-opacity:1;" d="M 1354.261719 125.511719 C 1353.863281 125.511719 1353.46875 125.550781 1353.078125 125.628906 C 1352.683594 125.707031 1352.304688 125.820312 1351.9375 125.972656 C 1351.566406 126.125 1351.214844 126.3125 1350.882812 126.535156 C 1350.550781 126.757812 1350.246094 127.007812 1349.964844 127.292969 C 1349.679688 127.574219 1349.429688 127.882812 1349.207031 128.214844 C 1348.984375 128.546875 1348.796875 128.894531 1348.644531 129.265625 C 1348.492188 129.632812 1348.378906 130.011719 1348.300781 130.40625 C 1348.222656 130.796875 1348.183594 131.191406 1348.183594 131.589844 C 1348.183594 131.992188 1348.222656 132.386719 1348.300781 132.777344 C 1348.378906 133.167969 1348.492188 133.550781 1348.644531 133.917969 C 1348.796875 134.285156 1348.984375 134.636719 1349.207031 134.96875 C 1349.429688 135.300781 1349.679688 135.609375 1349.964844 135.890625 C 1350.246094 136.171875 1350.550781 136.425781 1350.882812 136.648438 C 1351.214844 136.867188 1351.566406 137.054688 1351.9375 137.207031 C 1352.304688 137.363281 1352.683594 137.476562 1353.078125 137.554688 C 1353.46875 137.632812 1353.863281 137.671875 1354.261719 137.671875 C 1354.660156 137.671875 1355.058594 137.632812 1355.449219 137.554688 C 1355.839844 137.476562 1356.21875 137.363281 1356.589844 137.207031 C 1356.957031 137.054688 1357.308594 136.867188 1357.640625 136.648438 C 1357.972656 136.425781 1358.28125 136.171875 1358.5625 135.890625 C 1358.84375 135.609375 1359.097656 135.300781 1359.316406 134.96875 C 1359.539062 134.636719 1359.726562 134.285156 1359.878906 133.917969 C 1360.03125 133.550781 1360.148438 133.167969 1360.226562 132.777344 C 1360.304688 132.386719 1360.34375 131.992188 1360.34375 131.589844 C 1360.34375 131.191406 1360.304688 130.796875 1360.226562 130.40625 C 1360.148438 130.011719 1360.03125 129.632812 1359.878906 129.265625 C 1359.726562 128.894531 1359.539062 128.546875 1359.316406 128.214844 C 1359.097656 127.882812 1358.84375 127.574219 1358.5625 127.292969 C 1358.28125 127.007812 1357.972656 126.757812 1357.640625 126.535156 C 1357.308594 126.3125 1356.957031 126.125 1356.589844 125.972656 C 1356.21875 125.820312 1355.839844 125.707031 1355.449219 125.628906 C 1355.058594 125.550781 1354.660156 125.511719 1354.261719 125.511719 Z M 1354.261719 125.511719 "/>
<path style=" stroke:none;fill-rule:nonzero;fill:rgb(100%,56.858826%,0%);fill-opacity:1;" d="M 39.121094 664.394531 C 38.722656 664.394531 38.328125 664.433594 37.933594 664.511719 C 37.542969 664.589844 37.164062 664.707031 36.792969 664.859375 C 36.425781 665.011719 36.074219 665.199219 35.742188 665.421875 C 35.410156 665.640625 35.105469 665.894531 34.820312 666.175781 C 34.539062 666.457031 34.289062 666.765625 34.066406 667.097656 C 33.84375 667.429688 33.65625 667.78125 33.503906 668.148438 C 33.351562 668.519531 33.234375 668.898438 33.15625 669.289062 C 33.078125 669.679688 33.039062 670.078125 33.039062 670.476562 C 33.039062 670.875 33.078125 671.269531 33.15625 671.664062 C 33.234375 672.054688 33.351562 672.433594 33.503906 672.804688 C 33.65625 673.171875 33.84375 673.523438 34.066406 673.855469 C 34.289062 674.1875 34.539062 674.492188 34.820312 674.773438 C 35.105469 675.058594 35.410156 675.308594 35.742188 675.53125 C 36.074219 675.753906 36.425781 675.941406 36.792969 676.09375 C 37.164062 676.246094 37.542969 676.363281 37.933594 676.4375 C 38.328125 676.515625 38.722656 676.554688 39.121094 676.554688 C 39.519531 676.554688 39.914062 676.515625 40.308594 676.4375 C 40.699219 676.363281 41.078125 676.246094 41.449219 676.09375 C 41.816406 675.941406 42.167969 675.753906 42.5 675.53125 C 42.832031 675.308594 43.136719 675.058594 43.421875 674.773438 C 43.703125 674.492188 43.953125 674.1875 44.175781 673.855469 C 44.398438 673.523438 44.585938 673.171875 44.738281 672.804688 C 44.890625 672.433594 45.007812 672.054688 45.085938 671.664062 C 45.160156 671.269531 45.199219 670.875 45.199219 670.476562 C 45.199219 670.078125 45.160156 669.679688 45.085938 669.289062 C 45.007812 668.898438 44.890625 668.519531 44.738281 668.148438 C 44.585938 667.78125 44.398438 667.429688 44.175781 667.097656 C 43.953125 666.765625 43.703125 666.457031 43.421875 666.175781 C 43.136719 665.894531 42.832031 665.640625 42.5 665.421875 C 42.167969 665.199219 41.816406 665.011719 41.449219 664.859375 C 41.078125 664.707031 40.699219 664.589844 40.308594 664.511719 C 39.914062 664.433594 39.519531 664.394531 39.121094 664.394531 Z M 39.121094 664.394531 "/>
<path style=" stroke:none;fill-rule:nonzero;fill:rgb(100%,56.858826%,0%);fill-opacity:1;" d="M 1352.871094 702.726562 C 1352.472656 702.726562 1352.074219 702.765625 1351.683594 702.84375 C 1351.292969 702.921875 1350.914062 703.035156 1350.542969 703.1875 C 1350.175781 703.339844 1349.824219 703.527344 1349.492188 703.75 C 1349.160156 703.972656 1348.855469 704.222656 1348.570312 704.507812 C 1348.289062 704.789062 1348.035156 705.097656 1347.816406 705.429688 C 1347.59375 705.757812 1347.40625 706.109375 1347.253906 706.480469 C 1347.101562 706.847656 1346.984375 707.226562 1346.90625 707.621094 C 1346.828125 708.011719 1346.789062 708.40625 1346.789062 708.804688 C 1346.789062 709.203125 1346.828125 709.601562 1346.90625 709.992188 C 1346.984375 710.382812 1347.101562 710.765625 1347.253906 711.132812 C 1347.40625 711.5 1347.59375 711.851562 1347.816406 712.183594 C 1348.035156 712.515625 1348.289062 712.824219 1348.570312 713.105469 C 1348.855469 713.386719 1349.160156 713.640625 1349.492188 713.859375 C 1349.824219 714.082031 1350.175781 714.269531 1350.542969 714.421875 C 1350.914062 714.574219 1351.292969 714.691406 1351.683594 714.769531 C 1352.074219 714.847656 1352.472656 714.886719 1352.871094 714.886719 C 1353.269531 714.886719 1353.664062 714.847656 1354.058594 714.769531 C 1354.449219 714.691406 1354.828125 714.574219 1355.199219 714.421875 C 1355.566406 714.269531 1355.917969 714.082031 1356.25 713.859375 C 1356.582031 713.640625 1356.886719 713.386719 1357.167969 713.105469 C 1357.453125 712.824219 1357.703125 712.515625 1357.925781 712.183594 C 1358.148438 711.851562 1358.335938 711.5 1358.488281 711.132812 C 1358.640625 710.765625 1358.757812 710.382812 1358.832031 709.992188 C 1358.910156 709.601562 1358.949219 709.203125 1358.949219 708.804688 C 1358.949219 708.40625 1358.910156 708.011719 1358.832031 707.621094 C 1358.757812 707.226562 1358.640625 706.847656 1358.488281 706.480469 C 1358.335938 706.109375 1358.148438 705.757812 1357.925781 705.429688 C 1357.703125 705.097656 1357.453125 704.789062 1357.167969 704.507812 C 1356.886719 704.222656 1356.582031 703.972656 1356.25 703.75 C 1355.917969 703.527344 1355.566406 703.339844 1355.199219 703.1875 C 1354.828125 703.035156 1354.449219 702.921875 1354.058594 702.84375 C 1353.664062 702.765625 1353.269531 702.726562 1352.871094 702.726562 Z M 1352.871094 702.726562 "/>
<path style=" stroke:none;fill-rule:nonzero;fill:rgb(86.268616%,23.529053%,30.198669%);fill-opacity:1;" d="M 92.960938 407.78125 C 92.5625 407.78125 92.167969 407.820312 91.777344 407.898438 C 91.386719 407.976562 91.003906 408.089844 90.636719 408.246094 C 90.265625 408.398438 89.917969 408.585938 89.585938 408.804688 C 89.253906 409.027344 88.945312 409.28125 88.664062 409.5625 C 88.382812 409.84375 88.128906 410.152344 87.90625 410.484375 C 87.683594 410.816406 87.496094 411.164062 87.34375 411.535156 C 87.191406 411.902344 87.078125 412.285156 87 412.675781 C 86.921875 413.066406 86.882812 413.460938 86.882812 413.863281 C 86.882812 414.261719 86.921875 414.65625 87 415.046875 C 87.078125 415.4375 87.191406 415.820312 87.34375 416.1875 C 87.496094 416.558594 87.683594 416.90625 87.90625 417.238281 C 88.128906 417.570312 88.382812 417.878906 88.664062 418.160156 C 88.945312 418.441406 89.253906 418.695312 89.585938 418.917969 C 89.917969 419.140625 90.265625 419.324219 90.636719 419.480469 C 91.003906 419.632812 91.386719 419.746094 91.777344 419.824219 C 92.167969 419.902344 92.5625 419.941406 92.960938 419.941406 C 93.363281 419.941406 93.757812 419.902344 94.148438 419.824219 C 94.539062 419.746094 94.921875 419.632812 95.289062 419.480469 C 95.65625 419.324219 96.007812 419.140625 96.339844 418.917969 C 96.671875 418.695312 96.980469 418.441406 97.261719 418.160156 C 97.542969 417.878906 97.796875 417.570312 98.019531 417.238281 C 98.238281 416.90625 98.425781 416.558594 98.578125 416.1875 C 98.734375 415.820312 98.847656 415.4375 98.925781 415.046875 C 99.003906 414.65625 99.042969 414.261719 99.042969 413.863281 C 99.042969 413.460938 99.003906 413.066406 98.925781 412.675781 C 98.847656 412.285156 98.734375 411.902344 98.578125 411.535156 C 98.425781 411.164062 98.238281 410.816406 98.019531 410.484375 C 97.796875 410.152344 97.542969 409.84375 97.261719 409.5625 C 96.980469 409.28125 96.671875 409.027344 96.339844 408.804688 C 96.007812 408.585938 95.65625 408.398438 95.289062 408.246094 C 94.921875 408.089844 94.539062 407.976562 94.148438 407.898438 C 93.757812 407.820312 93.363281 407.78125 92.960938 407.78125 Z M 92.960938 407.78125 "/>
<path style=" stroke:none;fill-rule:nonzero;fill:rgb(100%,100%,100%);fill-opacity:1;" d="M 129.1875 86.632812 C 128.90625 86.632812 128.632812 86.660156 128.355469 86.714844 C 128.082031 86.769531 127.816406 86.851562 127.558594 86.957031 C 127.300781 87.066406 127.054688 87.195312 126.824219 87.351562 C 126.589844 87.507812 126.375 87.683594 126.179688 87.878906 C 125.980469 88.078125 125.804688 88.292969 125.648438 88.523438 C 125.492188 88.757812 125.363281 89.003906 125.253906 89.261719 C 125.148438 89.519531 125.066406 89.785156 125.011719 90.058594 C 124.957031 90.332031 124.929688 90.609375 124.929688 90.890625 C 124.929688 91.167969 124.957031 91.445312 125.011719 91.71875 C 125.066406 91.992188 125.148438 92.261719 125.253906 92.519531 C 125.363281 92.777344 125.492188 93.023438 125.648438 93.253906 C 125.804688 93.488281 125.980469 93.703125 126.179688 93.898438 C 126.375 94.097656 126.589844 94.273438 126.824219 94.429688 C 127.054688 94.582031 127.300781 94.714844 127.558594 94.820312 C 127.816406 94.929688 128.082031 95.007812 128.355469 95.0625 C 128.632812 95.117188 128.90625 95.144531 129.1875 95.144531 C 129.46875 95.144531 129.742188 95.117188 130.019531 95.0625 C 130.292969 95.007812 130.558594 94.929688 130.816406 94.820312 C 131.074219 94.714844 131.320312 94.582031 131.550781 94.429688 C 131.785156 94.273438 132 94.097656 132.195312 93.898438 C 132.394531 93.703125 132.570312 93.488281 132.726562 93.253906 C 132.882812 93.023438 133.011719 92.777344 133.121094 92.519531 C 133.226562 92.261719 133.308594 91.992188 133.363281 91.71875 C 133.414062 91.445312 133.441406 91.167969 133.441406 90.890625 C 133.441406 90.609375 133.414062 90.332031 133.363281 90.058594 C 133.308594 89.785156 133.226562 89.519531 133.121094 89.261719 C 133.011719 89.003906 132.882812 88.757812 132.726562 88.523438 C 132.570312 88.292969 132.394531 88.078125 132.195312 87.878906 C 132 87.683594 131.785156 87.507812 131.550781 87.351562 C 131.320312 87.195312 131.074219 87.066406 130.816406 86.957031 C 130.558594 86.851562 130.292969 86.769531 130.019531 86.714844 C 129.742188 86.660156 129.46875 86.632812 129.1875 86.632812 Z M 129.1875 86.632812 "/>
<path style=" stroke:none;fill-rule:nonzero;fill:rgb(100%,100%,100%);fill-opacity:1;" d="M 42.335938 172.859375 C 42.058594 172.859375 41.78125 172.886719 41.507812 172.941406 C 41.234375 172.996094 40.964844 173.078125 40.707031 173.183594 C 40.449219 173.292969 40.203125 173.421875 39.972656 173.578125 C 39.742188 173.734375 39.527344 173.910156 39.328125 174.105469 C 39.128906 174.304688 38.953125 174.519531 38.796875 174.753906 C 38.644531 174.984375 38.511719 175.230469 38.40625 175.488281 C 38.296875 175.746094 38.21875 176.011719 38.164062 176.285156 C 38.109375 176.558594 38.082031 176.835938 38.082031 177.117188 C 38.082031 177.394531 38.109375 177.671875 38.164062 177.945312 C 38.21875 178.222656 38.296875 178.488281 38.40625 178.746094 C 38.511719 179.003906 38.644531 179.25 38.796875 179.480469 C 38.953125 179.714844 39.128906 179.929688 39.328125 180.125 C 39.527344 180.324219 39.742188 180.5 39.972656 180.65625 C 40.203125 180.808594 40.449219 180.941406 40.707031 181.046875 C 40.964844 181.15625 41.234375 181.234375 41.507812 181.289062 C 41.78125 181.34375 42.058594 181.371094 42.335938 181.371094 C 42.617188 181.371094 42.894531 181.34375 43.167969 181.289062 C 43.441406 181.234375 43.707031 181.15625 43.964844 181.046875 C 44.222656 180.941406 44.46875 180.808594 44.703125 180.65625 C 44.933594 180.5 45.148438 180.324219 45.347656 180.125 C 45.542969 179.929688 45.71875 179.714844 45.875 179.480469 C 46.03125 179.25 46.160156 179.003906 46.269531 178.746094 C 46.375 178.488281 46.457031 178.222656 46.511719 177.945312 C 46.566406 177.671875 46.59375 177.394531 46.59375 177.117188 C 46.59375 176.835938 46.566406 176.558594 46.511719 176.285156 C 46.457031 176.011719 46.375 175.746094 46.269531 175.488281 C 46.160156 175.230469 46.03125 174.984375 45.875 174.753906 C 45.71875 174.519531 45.542969 174.304688 45.347656 174.105469 C 45.148438 173.910156 44.933594 173.734375 44.703125 173.578125 C 44.46875 173.421875 44.222656 173.292969 43.964844 173.183594 C 43.707031 173.078125 43.441406 172.996094 43.167969 172.941406 C 42.894531 172.886719 42.617188 172.859375 42.335938 172.859375 Z M 42.335938 172.859375 "/>
<path style=" stroke:none;fill-rule:nonzero;fill:rgb(100%,100%,100%);fill-opacity:1;" d="M 1393.289062 169.539062 C 1393.007812 169.539062 1392.734375 169.566406 1392.457031 169.621094 C 1392.183594 169.675781 1391.917969 169.753906 1391.660156 169.863281 C 1391.402344 169.96875 1391.15625 170.101562 1390.925781 170.253906 C 1390.691406 170.410156 1390.476562 170.585938 1390.28125 170.785156 C 1390.082031 170.980469 1389.90625 171.195312 1389.75 171.429688 C 1389.59375 171.660156 1389.464844 171.90625 1389.355469 172.164062 C 1389.25 172.421875 1389.167969 172.691406 1389.113281 172.964844 C 1389.058594 173.238281 1389.03125 173.515625 1389.03125 173.792969 C 1389.03125 174.074219 1389.058594 174.351562 1389.113281 174.625 C 1389.167969 174.898438 1389.25 175.164062 1389.355469 175.421875 C 1389.464844 175.679688 1389.59375 175.925781 1389.75 176.160156 C 1389.90625 176.390625 1390.082031 176.605469 1390.28125 176.804688 C 1390.476562 177 1390.691406 177.175781 1390.925781 177.332031 C 1391.15625 177.488281 1391.402344 177.617188 1391.660156 177.726562 C 1391.917969 177.832031 1392.183594 177.914062 1392.457031 177.96875 C 1392.734375 178.023438 1393.007812 178.050781 1393.289062 178.050781 C 1393.566406 178.050781 1393.84375 178.023438 1394.117188 177.96875 C 1394.394531 177.914062 1394.660156 177.832031 1394.917969 177.726562 C 1395.175781 177.617188 1395.421875 177.488281 1395.652344 177.332031 C 1395.886719 177.175781 1396.101562 177 1396.296875 176.804688 C 1396.496094 176.605469 1396.671875 176.390625 1396.828125 176.160156 C 1396.984375 175.925781 1397.113281 175.679688 1397.21875 175.421875 C 1397.328125 175.164062 1397.410156 174.898438 1397.460938 174.625 C 1397.515625 174.351562 1397.542969 174.074219 1397.542969 173.792969 C 1397.542969 173.515625 1397.515625 173.238281 1397.460938 172.964844 C 1397.410156 172.691406 1397.328125 172.421875 1397.21875 172.164062 C 1397.113281 171.90625 1396.984375 171.660156 1396.828125 171.429688 C 1396.671875 171.195312 1396.496094 170.980469 1396.296875 170.785156 C 1396.101562 170.585938 1395.886719 170.410156 1395.652344 170.253906 C 1395.421875 170.101562 1395.175781 169.96875 1394.917969 169.863281 C 1394.660156 169.753906 1394.394531 169.675781 1394.117188 169.621094 C 1393.84375 169.566406 1393.566406 169.539062 1393.289062 169.539062 Z M 1393.289062 169.539062 "/>
<path style=" stroke:none;fill-rule:nonzero;fill:rgb(100%,100%,100%);fill-opacity:1;" d="M 87.019531 703.691406 C 86.738281 703.691406 86.464844 703.71875 86.1875 703.773438 C 85.914062 703.828125 85.648438 703.90625 85.390625 704.015625 C 85.132812 704.121094 84.886719 704.253906 84.65625 704.40625 C 84.421875 704.5625 84.207031 704.738281 84.011719 704.9375 C 83.8125 705.132812 83.636719 705.347656 83.480469 705.582031 C 83.324219 705.8125 83.195312 706.058594 83.085938 706.316406 C 82.980469 706.574219 82.898438 706.839844 82.84375 707.117188 C 82.792969 707.390625 82.765625 707.667969 82.765625 707.945312 C 82.765625 708.226562 82.792969 708.503906 82.84375 708.777344 C 82.898438 709.050781 82.980469 709.316406 83.085938 709.574219 C 83.195312 709.832031 83.324219 710.078125 83.480469 710.308594 C 83.636719 710.542969 83.8125 710.757812 84.011719 710.957031 C 84.207031 711.152344 84.421875 711.328125 84.65625 711.484375 C 84.886719 711.640625 85.132812 711.769531 85.390625 711.878906 C 85.648438 711.984375 85.914062 712.066406 86.1875 712.121094 C 86.464844 712.175781 86.738281 712.203125 87.019531 712.203125 C 87.300781 712.203125 87.574219 712.175781 87.851562 712.121094 C 88.125 712.066406 88.390625 711.984375 88.648438 711.878906 C 88.90625 711.769531 89.152344 711.640625 89.382812 711.484375 C 89.617188 711.328125 89.832031 711.152344 90.027344 710.957031 C 90.226562 710.757812 90.402344 710.542969 90.558594 710.308594 C 90.714844 710.078125 90.84375 709.832031 90.953125 709.574219 C 91.058594 709.316406 91.140625 709.050781 91.195312 708.777344 C 91.25 708.503906 91.277344 708.226562 91.277344 707.945312 C 91.277344 707.667969 91.25 707.390625 91.195312 707.117188 C 91.140625 706.839844 91.058594 706.574219 90.953125 706.316406 C 90.84375 706.058594 90.714844 705.8125 90.558594 705.582031 C 90.402344 705.347656 90.226562 705.132812 90.027344 704.9375 C 89.832031 704.738281 89.617188 704.5625 89.382812 704.40625 C 89.152344 704.253906 88.90625 704.121094 88.648438 704.015625 C 88.390625 703.90625 88.125 703.828125 87.851562 703.773438 C 87.574219 703.71875 87.300781 703.691406 87.019531 703.691406 Z M 87.019531 703.691406 "/>
<path style=" stroke:none;fill-rule:nonzero;fill:rgb(100%,100%,100%);fill-opacity:1;" d="M 1363.15625 406.210938 C 1362.875 406.210938 1362.597656 406.238281 1362.324219 406.292969 C 1362.050781 406.347656 1361.785156 406.425781 1361.527344 406.535156 C 1361.269531 406.640625 1361.023438 406.773438 1360.789062 406.925781 C 1360.558594 407.082031 1360.34375 407.257812 1360.144531 407.457031 C 1359.949219 407.652344 1359.773438 407.867188 1359.617188 408.101562 C 1359.460938 408.332031 1359.332031 408.578125 1359.222656 408.835938 C 1359.117188 409.09375 1359.035156 409.359375 1358.980469 409.636719 C 1358.925781 409.910156 1358.898438 410.1875 1358.898438 410.464844 C 1358.898438 410.746094 1358.925781 411.023438 1358.980469 411.296875 C 1359.035156 411.570312 1359.117188 411.835938 1359.222656 412.09375 C 1359.332031 412.351562 1359.460938 412.597656 1359.617188 412.828125 C 1359.773438 413.0625 1359.949219 413.277344 1360.144531 413.476562 C 1360.34375 413.671875 1360.558594 413.847656 1360.789062 414.003906 C 1361.023438 414.160156 1361.269531 414.289062 1361.527344 414.398438 C 1361.785156 414.503906 1362.050781 414.585938 1362.324219 414.640625 C 1362.597656 414.695312 1362.875 414.722656 1363.15625 414.722656 C 1363.433594 414.722656 1363.710938 414.695312 1363.984375 414.640625 C 1364.257812 414.585938 1364.527344 414.503906 1364.785156 414.398438 C 1365.042969 414.289062 1365.289062 414.160156 1365.519531 414.003906 C 1365.753906 413.847656 1365.96875 413.671875 1366.164062 413.476562 C 1366.363281 413.277344 1366.539062 413.0625 1366.695312 412.828125 C 1366.847656 412.597656 1366.980469 412.351562 1367.085938 412.09375 C 1367.195312 411.835938 1367.273438 411.570312 1367.328125 411.296875 C 1367.382812 411.023438 1367.410156 410.746094 1367.410156 410.464844 C 1367.410156 410.1875 1367.382812 409.910156 1367.328125 409.636719 C 1367.273438 409.359375 1367.195312 409.09375 1367.085938 408.835938 C 1366.980469 408.578125 1366.847656 408.332031 1366.695312 408.101562 C 1366.539062 407.867188 1366.363281 407.652344 1366.164062 407.457031 C 1365.96875 407.257812 1365.753906 407.082031 1365.519531 406.925781 C 1365.289062 406.773438 1365.042969 406.640625 1364.785156 406.535156 C 1364.527344 406.425781 1364.257812 406.347656 1363.984375 406.292969 C 1363.710938 406.238281 1363.433594 406.210938 1363.15625 406.210938 Z M 1363.15625 406.210938 "/>
<path style=" stroke:none;fill-rule:nonzero;fill:rgb(100%,100%,100%);fill-opacity:1;" d="M 1401.511719 652.300781 C 1401.234375 652.300781 1400.957031 652.328125 1400.683594 652.382812 C 1400.40625 652.4375 1400.140625 652.519531 1399.882812 652.625 C 1399.625 652.734375 1399.378906 652.863281 1399.148438 653.019531 C 1398.914062 653.175781 1398.699219 653.351562 1398.503906 653.546875 C 1398.304688 653.746094 1398.128906 653.960938 1397.972656 654.191406 C 1397.816406 654.425781 1397.6875 654.671875 1397.582031 654.929688 C 1397.472656 655.1875 1397.390625 655.453125 1397.339844 655.726562 C 1397.285156 656 1397.257812 656.277344 1397.257812 656.558594 C 1397.257812 656.835938 1397.285156 657.113281 1397.339844 657.386719 C 1397.390625 657.660156 1397.472656 657.929688 1397.582031 658.1875 C 1397.6875 658.445312 1397.816406 658.691406 1397.972656 658.921875 C 1398.128906 659.152344 1398.304688 659.371094 1398.503906 659.566406 C 1398.699219 659.765625 1398.914062 659.941406 1399.148438 660.097656 C 1399.378906 660.25 1399.625 660.382812 1399.882812 660.488281 C 1400.140625 660.597656 1400.40625 660.675781 1400.683594 660.730469 C 1400.957031 660.785156 1401.234375 660.8125 1401.511719 660.8125 C 1401.792969 660.8125 1402.066406 660.785156 1402.34375 660.730469 C 1402.617188 660.675781 1402.882812 660.597656 1403.140625 660.488281 C 1403.398438 660.382812 1403.644531 660.25 1403.875 660.097656 C 1404.109375 659.941406 1404.324219 659.765625 1404.519531 659.566406 C 1404.71875 659.371094 1404.894531 659.152344 1405.050781 658.921875 C 1405.207031 658.691406 1405.335938 658.445312 1405.445312 658.1875 C 1405.550781 657.929688 1405.632812 657.660156 1405.6875 657.386719 C 1405.742188 657.113281 1405.769531 656.835938 1405.769531 656.558594 C 1405.769531 656.277344 1405.742188 656 1405.6875 655.726562 C 1405.632812 655.453125 1405.550781 655.1875 1405.445312 654.929688 C 1405.335938 654.671875 1405.207031 654.425781 1405.050781 654.191406 C 1404.894531 653.960938 1404.71875 653.746094 1404.519531 653.546875 C 1404.324219 653.351562 1404.109375 653.175781 1403.875 653.019531 C 1403.644531 652.863281 1403.398438 652.734375 1403.140625 652.625 C 1402.882812 652.519531 1402.617188 652.4375 1402.34375 652.382812 C 1402.066406 652.328125 1401.792969 652.300781 1401.511719 652.300781 Z M 1401.511719 652.300781 "/>
<path style=" stroke:none;fill-rule:nonzero;fill:rgb(45.878601%,78.039551%,98.429871%);fill-opacity:1;" d="M 84.070312 131.453125 C 83.085938 131.453125 82.113281 131.550781 81.148438 131.742188 C 80.183594 131.933594 79.246094 132.214844 78.339844 132.59375 C 77.429688 132.96875 76.566406 133.429688 75.75 133.976562 C 74.933594 134.523438 74.175781 135.144531 73.480469 135.839844 C 72.785156 136.535156 72.164062 137.289062 71.617188 138.109375 C 71.074219 138.925781 70.609375 139.789062 70.234375 140.695312 C 69.859375 141.605469 69.574219 142.542969 69.382812 143.503906 C 69.191406 144.46875 69.09375 145.445312 69.09375 146.425781 C 69.09375 147.410156 69.191406 148.382812 69.382812 149.347656 C 69.574219 150.3125 69.859375 151.25 70.234375 152.15625 C 70.609375 153.066406 71.074219 153.929688 71.617188 154.746094 C 72.164062 155.5625 72.785156 156.320312 73.480469 157.015625 C 74.175781 157.710938 74.933594 158.332031 75.75 158.878906 C 76.566406 159.421875 77.429688 159.882812 78.339844 160.261719 C 79.246094 160.636719 80.183594 160.921875 81.148438 161.113281 C 82.113281 161.304688 83.085938 161.402344 84.070312 161.402344 C 85.050781 161.402344 86.027344 161.304688 86.988281 161.113281 C 87.953125 160.921875 88.890625 160.636719 89.800781 160.261719 C 90.707031 159.882812 91.570312 159.421875 92.386719 158.878906 C 93.207031 158.332031 93.960938 157.710938 94.65625 157.015625 C 95.351562 156.320312 95.972656 155.5625 96.519531 154.746094 C 97.066406 153.929688 97.527344 153.066406 97.902344 152.15625 C 98.277344 151.25 98.5625 150.3125 98.753906 149.347656 C 98.945312 148.382812 99.042969 147.410156 99.042969 146.425781 C 99.042969 145.445312 98.945312 144.46875 98.753906 143.503906 C 98.5625 142.542969 98.277344 141.605469 97.902344 140.695312 C 97.527344 139.789062 97.066406 138.925781 96.519531 138.109375 C 95.972656 137.289062 95.351562 136.535156 94.65625 135.839844 C 93.960938 135.144531 93.207031 134.523438 92.386719 133.976562 C 91.570312 133.429688 90.707031 132.96875 89.800781 132.59375 C 88.890625 132.214844 87.953125 131.933594 86.988281 131.742188 C 86.027344 131.550781 85.050781 131.453125 84.070312 131.453125 Z M 84.070312 131.453125 "/>
<path style=" stroke:none;fill-rule:nonzero;fill:rgb(5.099487%,17.248535%,25.878906%);fill-opacity:1;" d="M 84.039062 135.945312 C 83.351562 135.945312 82.671875 136.011719 81.996094 136.148438 C 81.320312 136.28125 80.664062 136.480469 80.027344 136.742188 C 79.394531 137.007812 78.789062 137.328125 78.214844 137.710938 C 77.644531 138.09375 77.113281 138.527344 76.628906 139.015625 C 76.140625 139.503906 75.707031 140.03125 75.324219 140.605469 C 74.941406 141.175781 74.621094 141.78125 74.355469 142.414062 C 74.09375 143.050781 73.894531 143.707031 73.761719 144.382812 C 73.625 145.058594 73.558594 145.738281 73.558594 146.425781 C 73.558594 147.117188 73.625 147.796875 73.761719 148.472656 C 73.894531 149.148438 74.09375 149.800781 74.355469 150.4375 C 74.621094 151.074219 74.941406 151.679688 75.324219 152.25 C 75.707031 152.824219 76.140625 153.351562 76.628906 153.839844 C 77.113281 154.324219 77.644531 154.757812 78.214844 155.140625 C 78.789062 155.523438 79.394531 155.847656 80.027344 156.109375 C 80.664062 156.375 81.320312 156.574219 81.996094 156.707031 C 82.671875 156.839844 83.351562 156.910156 84.039062 156.910156 C 84.726562 156.910156 85.410156 156.839844 86.085938 156.707031 C 86.761719 156.574219 87.414062 156.375 88.050781 156.109375 C 88.6875 155.847656 89.289062 155.523438 89.863281 155.140625 C 90.433594 154.757812 90.964844 154.324219 91.453125 153.839844 C 91.9375 153.351562 92.371094 152.824219 92.753906 152.25 C 93.136719 151.679688 93.460938 151.074219 93.722656 150.4375 C 93.988281 149.800781 94.1875 149.148438 94.320312 148.472656 C 94.453125 147.796875 94.519531 147.117188 94.519531 146.425781 C 94.519531 145.738281 94.453125 145.058594 94.320312 144.382812 C 94.1875 143.707031 93.988281 143.050781 93.722656 142.414062 C 93.460938 141.78125 93.136719 141.175781 92.753906 140.605469 C 92.371094 140.03125 91.9375 139.503906 91.453125 139.015625 C 90.964844 138.527344 90.433594 138.09375 89.863281 137.710938 C 89.289062 137.328125 88.6875 137.007812 88.050781 136.742188 C 87.414062 136.480469 86.761719 136.28125 86.085938 136.148438 C 85.410156 136.011719 84.726562 135.945312 84.039062 135.945312 Z M 84.039062 135.945312 "/>
<path style=" stroke:none;fill-rule:nonzero;fill:rgb(45.878601%,78.039551%,98.429871%);fill-opacity:1;" d="M 1394.800781 693.832031 C 1393.816406 693.832031 1392.84375 693.929688 1391.878906 694.121094 C 1390.914062 694.3125 1389.976562 694.59375 1389.070312 694.972656 C 1388.160156 695.347656 1387.296875 695.808594 1386.480469 696.355469 C 1385.664062 696.902344 1384.90625 697.523438 1384.210938 698.21875 C 1383.515625 698.914062 1382.894531 699.667969 1382.347656 700.488281 C 1381.800781 701.304688 1381.339844 702.167969 1380.964844 703.074219 C 1380.589844 703.984375 1380.304688 704.921875 1380.113281 705.882812 C 1379.921875 706.847656 1379.824219 707.824219 1379.824219 708.804688 C 1379.824219 709.789062 1379.921875 710.761719 1380.113281 711.726562 C 1380.304688 712.691406 1380.589844 713.628906 1380.964844 714.535156 C 1381.339844 715.445312 1381.800781 716.308594 1382.347656 717.125 C 1382.894531 717.941406 1383.515625 718.699219 1384.210938 719.394531 C 1384.90625 720.089844 1385.664062 720.710938 1386.480469 721.257812 C 1387.296875 721.800781 1388.160156 722.261719 1389.070312 722.640625 C 1389.976562 723.015625 1390.914062 723.300781 1391.878906 723.492188 C 1392.84375 723.683594 1393.816406 723.78125 1394.800781 723.78125 C 1395.78125 723.78125 1396.757812 723.683594 1397.71875 723.492188 C 1398.683594 723.300781 1399.621094 723.015625 1400.527344 722.640625 C 1401.4375 722.261719 1402.300781 721.800781 1403.117188 721.257812 C 1403.933594 720.710938 1404.691406 720.089844 1405.386719 719.394531 C 1406.082031 718.699219 1406.703125 717.941406 1407.25 717.125 C 1407.796875 716.308594 1408.257812 715.445312 1408.632812 714.535156 C 1409.007812 713.628906 1409.292969 712.691406 1409.484375 711.726562 C 1409.675781 710.761719 1409.773438 709.789062 1409.773438 708.804688 C 1409.773438 707.824219 1409.675781 706.847656 1409.484375 705.882812 C 1409.292969 704.921875 1409.007812 703.984375 1408.632812 703.074219 C 1408.257812 702.167969 1407.796875 701.304688 1407.25 700.488281 C 1406.703125 699.667969 1406.082031 698.914062 1405.386719 698.21875 C 1404.691406 697.523438 1403.933594 696.902344 1403.117188 696.355469 C 1402.300781 695.808594 1401.4375 695.347656 1400.527344 694.972656 C 1399.621094 694.59375 1398.683594 694.3125 1397.71875 694.121094 C 1396.757812 693.929688 1395.78125 693.832031 1394.800781 693.832031 Z M 1394.800781 693.832031 "/>
<path style=" stroke:none;fill-rule:nonzero;fill:rgb(5.099487%,17.248535%,25.878906%);fill-opacity:1;" d="M 1394.769531 698.324219 C 1394.082031 698.324219 1393.398438 698.390625 1392.726562 698.527344 C 1392.050781 698.660156 1391.394531 698.859375 1390.757812 699.121094 C 1390.125 699.386719 1389.519531 699.707031 1388.945312 700.089844 C 1388.375 700.472656 1387.84375 700.90625 1387.359375 701.394531 C 1386.871094 701.878906 1386.4375 702.410156 1386.054688 702.984375 C 1385.671875 703.554688 1385.351562 704.160156 1385.085938 704.792969 C 1384.824219 705.429688 1384.625 706.085938 1384.488281 706.761719 C 1384.355469 707.4375 1384.289062 708.117188 1384.289062 708.804688 C 1384.289062 709.492188 1384.355469 710.175781 1384.488281 710.851562 C 1384.625 711.527344 1384.824219 712.179688 1385.085938 712.816406 C 1385.351562 713.453125 1385.671875 714.058594 1386.054688 714.628906 C 1386.4375 715.199219 1386.871094 715.730469 1387.359375 716.21875 C 1387.84375 716.703125 1388.375 717.136719 1388.945312 717.519531 C 1389.519531 717.902344 1390.125 718.226562 1390.757812 718.488281 C 1391.394531 718.753906 1392.050781 718.953125 1392.726562 719.085938 C 1393.398438 719.21875 1394.082031 719.289062 1394.769531 719.289062 C 1395.457031 719.289062 1396.140625 719.21875 1396.816406 719.085938 C 1397.488281 718.953125 1398.144531 718.753906 1398.78125 718.488281 C 1399.417969 718.226562 1400.019531 717.902344 1400.59375 717.519531 C 1401.164062 717.136719 1401.695312 716.703125 1402.179688 716.21875 C 1402.667969 715.730469 1403.101562 715.199219 1403.484375 714.628906 C 1403.867188 714.058594 1404.191406 713.453125 1404.453125 712.816406 C 1404.71875 712.179688 1404.914062 711.527344 1405.050781 710.851562 C 1405.183594 710.175781 1405.25 709.492188 1405.25 708.804688 C 1405.25 708.117188 1405.183594 707.4375 1405.050781 706.761719 C 1404.914062 706.085938 1404.71875 705.429688 1404.453125 704.792969 C 1404.191406 704.160156 1403.867188 703.554688 1403.484375 702.984375 C 1403.101562 702.410156 1402.667969 701.878906 1402.179688 701.394531 C 1401.695312 700.90625 1401.164062 700.472656 1400.59375 700.089844 C 1400.019531 699.707031 1399.417969 699.386719 1398.78125 699.121094 C 1398.144531 698.859375 1397.488281 698.660156 1396.816406 698.527344 C 1396.140625 698.390625 1395.457031 698.324219 1394.769531 698.324219 Z M 1394.769531 698.324219 "/>
<path style=" stroke:none;fill-rule:nonzero;fill:rgb(86.268616%,23.529053%,30.198669%);fill-opacity:1;" d="M 1394.011719 83.234375 C 1393.027344 83.234375 1392.054688 83.332031 1391.089844 83.523438 C 1390.125 83.714844 1389.1875 84 1388.28125 84.375 C 1387.371094 84.753906 1386.507812 85.214844 1385.691406 85.757812 C 1384.875 86.304688 1384.117188 86.925781 1383.421875 87.621094 C 1382.726562 88.316406 1382.105469 89.074219 1381.558594 89.890625 C 1381.015625 90.707031 1380.550781 91.570312 1380.175781 92.480469 C 1379.800781 93.386719 1379.515625 94.324219 1379.324219 95.289062 C 1379.132812 96.253906 1379.035156 97.226562 1379.035156 98.210938 C 1379.035156 99.191406 1379.132812 100.167969 1379.324219 101.132812 C 1379.515625 102.09375 1379.800781 103.03125 1380.175781 103.941406 C 1380.550781 104.847656 1381.015625 105.710938 1381.558594 106.527344 C 1382.105469 107.347656 1382.726562 108.101562 1383.421875 108.796875 C 1384.117188 109.492188 1384.875 110.113281 1385.691406 110.660156 C 1386.507812 111.207031 1387.371094 111.667969 1388.28125 112.042969 C 1389.1875 112.421875 1390.125 112.703125 1391.089844 112.894531 C 1392.054688 113.085938 1393.027344 113.183594 1394.011719 113.183594 C 1394.992188 113.183594 1395.96875 113.085938 1396.929688 112.894531 C 1397.894531 112.703125 1398.832031 112.421875 1399.742188 112.042969 C 1400.648438 111.667969 1401.511719 111.207031 1402.328125 110.660156 C 1403.148438 110.113281 1403.902344 109.492188 1404.597656 108.796875 C 1405.292969 108.101562 1405.914062 107.347656 1406.460938 106.527344 C 1407.007812 105.710938 1407.46875 104.847656 1407.84375 103.941406 C 1408.21875 103.03125 1408.503906 102.09375 1408.695312 101.132812 C 1408.886719 100.167969 1408.984375 99.191406 1408.984375 98.210938 C 1408.984375 97.226562 1408.886719 96.253906 1408.695312 95.289062 C 1408.503906 94.324219 1408.21875 93.386719 1407.84375 92.480469 C 1407.46875 91.570312 1407.007812 90.707031 1406.460938 89.890625 C 1405.914062 89.074219 1405.292969 88.316406 1404.597656 87.621094 C 1403.902344 86.925781 1403.148438 86.304688 1402.328125 85.757812 C 1401.511719 85.214844 1400.648438 84.753906 1399.742188 84.375 C 1398.832031 84 1397.894531 83.714844 1396.929688 83.523438 C 1395.96875 83.332031 1394.992188 83.234375 1394.011719 83.234375 Z M 1394.011719 83.234375 "/>
<path style=" stroke:none;fill-rule:nonzero;fill:rgb(5.099487%,17.248535%,25.878906%);fill-opacity:1;" d="M 1393.980469 87.726562 C 1393.292969 87.726562 1392.613281 87.796875 1391.9375 87.929688 C 1391.261719 88.0625 1390.605469 88.261719 1389.96875 88.527344 C 1389.335938 88.789062 1388.730469 89.113281 1388.15625 89.496094 C 1387.585938 89.878906 1387.054688 90.3125 1386.570312 90.796875 C 1386.082031 91.285156 1385.648438 91.8125 1385.265625 92.386719 C 1384.882812 92.957031 1384.5625 93.5625 1384.296875 94.199219 C 1384.035156 94.835938 1383.835938 95.488281 1383.703125 96.164062 C 1383.566406 96.839844 1383.5 97.523438 1383.5 98.210938 C 1383.5 98.898438 1383.566406 99.578125 1383.703125 100.253906 C 1383.835938 100.929688 1384.035156 101.585938 1384.296875 102.222656 C 1384.5625 102.855469 1384.882812 103.460938 1385.265625 104.03125 C 1385.648438 104.605469 1386.082031 105.132812 1386.570312 105.621094 C 1387.054688 106.109375 1387.585938 106.542969 1388.15625 106.925781 C 1388.730469 107.308594 1389.335938 107.628906 1389.96875 107.894531 C 1390.605469 108.15625 1391.261719 108.355469 1391.9375 108.488281 C 1392.613281 108.625 1393.292969 108.691406 1393.980469 108.691406 C 1394.667969 108.691406 1395.351562 108.625 1396.027344 108.488281 C 1396.703125 108.355469 1397.355469 108.15625 1397.992188 107.894531 C 1398.628906 107.628906 1399.230469 107.308594 1399.804688 106.925781 C 1400.375 106.542969 1400.90625 106.109375 1401.394531 105.621094 C 1401.878906 105.132812 1402.3125 104.605469 1402.695312 104.03125 C 1403.078125 103.460938 1403.402344 102.855469 1403.664062 102.222656 C 1403.929688 101.585938 1404.128906 100.929688 1404.261719 100.253906 C 1404.394531 99.578125 1404.460938 98.898438 1404.460938 98.210938 C 1404.460938 97.523438 1404.394531 96.839844 1404.261719 96.164062 C 1404.128906 95.488281 1403.929688 94.835938 1403.664062 94.199219 C 1403.402344 93.5625 1403.078125 92.957031 1402.695312 92.386719 C 1402.3125 91.8125 1401.878906 91.285156 1401.394531 90.796875 C 1400.90625 90.3125 1400.375 89.878906 1399.804688 89.496094 C 1399.230469 89.113281 1398.628906 88.789062 1397.992188 88.527344 C 1397.355469 88.261719 1396.703125 88.0625 1396.027344 87.929688 C 1395.351562 87.796875 1394.667969 87.726562 1393.980469 87.726562 Z M 1393.980469 87.726562 "/>
<path style=" stroke:none;fill-rule:nonzero;fill:rgb(86.268616%,23.529053%,30.198669%);fill-opacity:1;" d="M 1394.011719 83.234375 C 1393.027344 83.234375 1392.054688 83.332031 1391.089844 83.523438 C 1390.125 83.714844 1389.1875 84 1388.28125 84.375 C 1387.371094 84.753906 1386.507812 85.214844 1385.691406 85.757812 C 1384.875 86.304688 1384.117188 86.925781 1383.421875 87.621094 C 1382.726562 88.316406 1382.105469 89.074219 1381.558594 89.890625 C 1381.015625 90.707031 1380.550781 91.570312 1380.175781 92.480469 C 1379.800781 93.386719 1379.515625 94.324219 1379.324219 95.289062 C 1379.132812 96.253906 1379.035156 97.226562 1379.035156 98.210938 C 1379.035156 99.191406 1379.132812 100.167969 1379.324219 101.132812 C 1379.515625 102.09375 1379.800781 103.03125 1380.175781 103.941406 C 1380.550781 104.847656 1381.015625 105.710938 1381.558594 106.527344 C 1382.105469 107.347656 1382.726562 108.101562 1383.421875 108.796875 C 1384.117188 109.492188 1384.875 110.113281 1385.691406 110.660156 C 1386.507812 111.207031 1387.371094 111.667969 1388.28125 112.042969 C 1389.1875 112.421875 1390.125 112.703125 1391.089844 112.894531 C 1392.054688 113.085938 1393.027344 113.183594 1394.011719 113.183594 C 1394.992188 113.183594 1395.96875 113.085938 1396.929688 112.894531 C 1397.894531 112.703125 1398.832031 112.421875 1399.742188 112.042969 C 1400.648438 111.667969 1401.511719 111.207031 1402.328125 110.660156 C 1403.148438 110.113281 1403.902344 109.492188 1404.597656 108.796875 C 1405.292969 108.101562 1405.914062 107.347656 1406.460938 106.527344 C 1407.007812 105.710938 1407.46875 104.847656 1407.84375 103.941406 C 1408.21875 103.03125 1408.503906 102.09375 1408.695312 101.132812 C 1408.886719 100.167969 1408.984375 99.191406 1408.984375 98.210938 C 1408.984375 97.226562 1408.886719 96.253906 1408.695312 95.289062 C 1408.503906 94.324219 1408.21875 93.386719 1407.84375 92.480469 C 1407.46875 91.570312 1407.007812 90.707031 1406.460938 89.890625 C 1405.914062 89.074219 1405.292969 88.316406 1404.597656 87.621094 C 1403.902344 86.925781 1403.148438 86.304688 1402.328125 85.757812 C 1401.511719 85.214844 1400.648438 84.753906 1399.742188 84.375 C 1398.832031 84 1397.894531 83.714844 1396.929688 83.523438 C 1395.96875 83.332031 1394.992188 83.234375 1394.011719 83.234375 Z M 1394.011719 83.234375 "/>
<path style=" stroke:none;fill-rule:nonzero;fill:rgb(5.099487%,17.248535%,25.878906%);fill-opacity:1;" d="M 1393.980469 87.726562 C 1393.292969 87.726562 1392.613281 87.796875 1391.9375 87.929688 C 1391.261719 88.0625 1390.605469 88.261719 1389.96875 88.527344 C 1389.335938 88.789062 1388.730469 89.113281 1388.15625 89.496094 C 1387.585938 89.878906 1387.054688 90.3125 1386.570312 90.796875 C 1386.082031 91.285156 1385.648438 91.8125 1385.265625 92.386719 C 1384.882812 92.957031 1384.5625 93.5625 1384.296875 94.199219 C 1384.035156 94.835938 1383.835938 95.488281 1383.703125 96.164062 C 1383.566406 96.839844 1383.5 97.523438 1383.5 98.210938 C 1383.5 98.898438 1383.566406 99.578125 1383.703125 100.253906 C 1383.835938 100.929688 1384.035156 101.585938 1384.296875 102.222656 C 1384.5625 102.855469 1384.882812 103.460938 1385.265625 104.03125 C 1385.648438 104.605469 1386.082031 105.132812 1386.570312 105.621094 C 1387.054688 106.109375 1387.585938 106.542969 1388.15625 106.925781 C 1388.730469 107.308594 1389.335938 107.628906 1389.96875 107.894531 C 1390.605469 108.15625 1391.261719 108.355469 1391.9375 108.488281 C 1392.613281 108.625 1393.292969 108.691406 1393.980469 108.691406 C 1394.667969 108.691406 1395.351562 108.625 1396.027344 108.488281 C 1396.703125 108.355469 1397.355469 108.15625 1397.992188 107.894531 C 1398.628906 107.628906 1399.230469 107.308594 1399.804688 106.925781 C 1400.375 106.542969 1400.90625 106.109375 1401.394531 105.621094 C 1401.878906 105.132812 1402.3125 104.605469 1402.695312 104.03125 C 1403.078125 103.460938 1403.402344 102.855469 1403.664062 102.222656 C 1403.929688 101.585938 1404.128906 100.929688 1404.261719 100.253906 C 1404.394531 99.578125 1404.460938 98.898438 1404.460938 98.210938 C 1404.460938 97.523438 1404.394531 96.839844 1404.261719 96.164062 C 1404.128906 95.488281 1403.929688 94.835938 1403.664062 94.199219 C 1403.402344 93.5625 1403.078125 92.957031 1402.695312 92.386719 C 1402.3125 91.8125 1401.878906 91.285156 1401.394531 90.796875 C 1400.90625 90.3125 1400.375 89.878906 1399.804688 89.496094 C 1399.230469 89.113281 1398.628906 88.789062 1397.992188 88.527344 C 1397.355469 88.261719 1396.703125 88.0625 1396.027344 87.929688 C 1395.351562 87.796875 1394.667969 87.726562 1393.980469 87.726562 Z M 1393.980469 87.726562 "/>
<path style=" stroke:none;fill-rule:nonzero;fill:rgb(86.268616%,23.529053%,30.198669%);fill-opacity:1;" d="M 45.199219 699.050781 C 44.21875 699.050781 43.242188 699.148438 42.28125 699.339844 C 41.316406 699.53125 40.378906 699.816406 39.472656 700.191406 C 38.5625 700.570312 37.699219 701.03125 36.882812 701.574219 C 36.066406 702.121094 35.308594 702.742188 34.613281 703.4375 C 33.917969 704.132812 33.296875 704.890625 32.75 705.707031 C 32.203125 706.523438 31.742188 707.386719 31.367188 708.296875 C 30.992188 709.203125 30.707031 710.140625 30.515625 711.105469 C 30.324219 712.070312 30.226562 713.042969 30.226562 714.027344 C 30.226562 715.007812 30.324219 715.984375 30.515625 716.949219 C 30.707031 717.910156 30.992188 718.847656 31.367188 719.757812 C 31.742188 720.664062 32.203125 721.527344 32.75 722.34375 C 33.296875 723.164062 33.917969 723.917969 34.613281 724.613281 C 35.308594 725.308594 36.066406 725.929688 36.882812 726.476562 C 37.699219 727.023438 38.5625 727.484375 39.472656 727.859375 C 40.378906 728.238281 41.316406 728.519531 42.28125 728.710938 C 43.242188 728.902344 44.21875 729 45.199219 729 C 46.183594 729 47.15625 728.902344 48.121094 728.710938 C 49.085938 728.519531 50.023438 728.238281 50.929688 727.859375 C 51.839844 727.484375 52.703125 727.023438 53.519531 726.476562 C 54.335938 725.929688 55.09375 725.308594 55.789062 724.613281 C 56.484375 723.917969 57.105469 723.164062 57.652344 722.34375 C 58.199219 721.527344 58.660156 720.664062 59.035156 719.757812 C 59.410156 718.847656 59.695312 717.910156 59.886719 716.949219 C 60.078125 715.984375 60.175781 715.007812 60.175781 714.027344 C 60.175781 713.042969 60.078125 712.070312 59.886719 711.105469 C 59.695312 710.140625 59.410156 709.203125 59.035156 708.296875 C 58.660156 707.386719 58.199219 706.523438 57.652344 705.707031 C 57.105469 704.890625 56.484375 704.132812 55.789062 703.4375 C 55.09375 702.742188 54.335938 702.121094 53.519531 701.574219 C 52.703125 701.03125 51.839844 700.570312 50.929688 700.191406 C 50.023438 699.816406 49.085938 699.53125 48.121094 699.339844 C 47.15625 699.148438 46.183594 699.050781 45.199219 699.050781 Z M 45.199219 699.050781 "/>
<path style=" stroke:none;fill-rule:nonzero;fill:rgb(5.099487%,17.248535%,25.878906%);fill-opacity:1;" d="M 45.171875 703.542969 C 44.484375 703.542969 43.800781 703.613281 43.128906 703.746094 C 42.453125 703.878906 41.796875 704.078125 41.160156 704.34375 C 40.523438 704.605469 39.921875 704.929688 39.347656 705.3125 C 38.777344 705.695312 38.246094 706.128906 37.761719 706.613281 C 37.273438 707.101562 36.839844 707.628906 36.457031 708.203125 C 36.074219 708.773438 35.75 709.378906 35.488281 710.015625 C 35.226562 710.652344 35.027344 711.304688 34.890625 711.980469 C 34.757812 712.65625 34.691406 713.339844 34.691406 714.027344 C 34.691406 714.714844 34.757812 715.394531 34.890625 716.070312 C 35.027344 716.746094 35.226562 717.402344 35.488281 718.039062 C 35.75 718.671875 36.074219 719.277344 36.457031 719.847656 C 36.839844 720.421875 37.273438 720.949219 37.761719 721.4375 C 38.246094 721.925781 38.777344 722.359375 39.347656 722.742188 C 39.921875 723.125 40.523438 723.445312 41.160156 723.710938 C 41.796875 723.972656 42.453125 724.171875 43.128906 724.304688 C 43.800781 724.441406 44.484375 724.507812 45.171875 724.507812 C 45.859375 724.507812 46.542969 724.441406 47.21875 724.304688 C 47.890625 724.171875 48.546875 723.972656 49.183594 723.710938 C 49.820312 723.445312 50.421875 723.125 50.996094 722.742188 C 51.566406 722.359375 52.097656 721.925781 52.582031 721.4375 C 53.070312 720.949219 53.503906 720.421875 53.886719 719.847656 C 54.269531 719.277344 54.59375 718.671875 54.855469 718.039062 C 55.117188 717.402344 55.316406 716.746094 55.453125 716.070312 C 55.585938 715.394531 55.652344 714.714844 55.652344 714.027344 C 55.652344 713.339844 55.585938 712.65625 55.453125 711.980469 C 55.316406 711.304688 55.117188 710.652344 54.855469 710.015625 C 54.59375 709.378906 54.269531 708.773438 53.886719 708.203125 C 53.503906 707.628906 53.070312 707.101562 52.582031 706.613281 C 52.097656 706.128906 51.566406 705.695312 50.996094 705.3125 C 50.421875 704.929688 49.820312 704.605469 49.183594 704.34375 C 48.546875 704.078125 47.890625 703.878906 47.21875 703.746094 C 46.542969 703.613281 45.859375 703.542969 45.171875 703.542969 Z M 45.171875 703.542969 "/>
<path style=" stroke:none;fill-rule:nonzero;fill:rgb(100%,56.858826%,0%);fill-opacity:1;" d="M 43.53125 401.050781 C 42.546875 401.050781 41.574219 401.148438 40.609375 401.339844 C 39.644531 401.53125 38.707031 401.816406 37.800781 402.191406 C 36.890625 402.570312 36.027344 403.03125 35.210938 403.574219 C 34.394531 404.121094 33.636719 404.742188 32.941406 405.4375 C 32.246094 406.132812 31.625 406.890625 31.082031 407.707031 C 30.535156 408.523438 30.074219 409.386719 29.695312 410.296875 C 29.320312 411.203125 29.035156 412.140625 28.84375 413.105469 C 28.652344 414.070312 28.558594 415.042969 28.558594 416.027344 C 28.558594 417.007812 28.652344 417.984375 28.84375 418.949219 C 29.035156 419.910156 29.320312 420.847656 29.695312 421.757812 C 30.074219 422.664062 30.535156 423.527344 31.082031 424.34375 C 31.625 425.164062 32.246094 425.917969 32.941406 426.613281 C 33.636719 427.308594 34.394531 427.929688 35.210938 428.476562 C 36.027344 429.023438 36.890625 429.484375 37.800781 429.859375 C 38.707031 430.238281 39.644531 430.519531 40.609375 430.710938 C 41.574219 430.902344 42.546875 431 43.53125 431 C 44.515625 431 45.488281 430.902344 46.453125 430.710938 C 47.417969 430.519531 48.351562 430.238281 49.261719 429.859375 C 50.167969 429.484375 51.03125 429.023438 51.851562 428.476562 C 52.667969 427.929688 53.421875 427.308594 54.117188 426.613281 C 54.8125 425.917969 55.433594 425.164062 55.980469 424.34375 C 56.527344 423.527344 56.988281 422.664062 57.363281 421.757812 C 57.742188 420.847656 58.023438 419.910156 58.214844 418.949219 C 58.410156 417.984375 58.503906 417.007812 58.503906 416.027344 C 58.503906 415.042969 58.410156 414.070312 58.214844 413.105469 C 58.023438 412.140625 57.742188 411.203125 57.363281 410.296875 C 56.988281 409.386719 56.527344 408.523438 55.980469 407.707031 C 55.433594 406.890625 54.8125 406.132812 54.117188 405.4375 C 53.421875 404.742188 52.667969 404.121094 51.851562 403.574219 C 51.03125 403.03125 50.167969 402.570312 49.261719 402.191406 C 48.351562 401.816406 47.417969 401.53125 46.453125 401.339844 C 45.488281 401.148438 44.515625 401.050781 43.53125 401.050781 Z M 43.53125 401.050781 "/>
<path style=" stroke:none;fill-rule:nonzero;fill:rgb(5.099487%,17.248535%,25.878906%);fill-opacity:1;" d="M 43.5 405.542969 C 42.8125 405.542969 42.132812 405.613281 41.457031 405.746094 C 40.78125 405.878906 40.125 406.078125 39.492188 406.34375 C 38.855469 406.605469 38.25 406.929688 37.679688 407.3125 C 37.105469 407.695312 36.578125 408.128906 36.089844 408.613281 C 35.601562 409.101562 35.167969 409.632812 34.785156 410.203125 C 34.402344 410.773438 34.082031 411.378906 33.816406 412.015625 C 33.554688 412.652344 33.355469 413.304688 33.222656 413.980469 C 33.085938 414.65625 33.019531 415.339844 33.019531 416.027344 C 33.019531 416.714844 33.085938 417.394531 33.222656 418.070312 C 33.355469 418.746094 33.554688 419.402344 33.816406 420.039062 C 34.082031 420.671875 34.402344 421.277344 34.785156 421.847656 C 35.167969 422.421875 35.601562 422.953125 36.089844 423.4375 C 36.578125 423.925781 37.105469 424.359375 37.679688 424.742188 C 38.25 425.125 38.855469 425.445312 39.492188 425.710938 C 40.125 425.972656 40.78125 426.171875 41.457031 426.304688 C 42.132812 426.441406 42.8125 426.507812 43.5 426.507812 C 44.191406 426.507812 44.871094 426.441406 45.546875 426.304688 C 46.222656 426.171875 46.875 425.972656 47.511719 425.710938 C 48.148438 425.445312 48.753906 425.125 49.324219 424.742188 C 49.898438 424.359375 50.425781 423.925781 50.914062 423.4375 C 51.398438 422.953125 51.835938 422.421875 52.214844 421.847656 C 52.597656 421.277344 52.921875 420.671875 53.183594 420.039062 C 53.449219 419.402344 53.648438 418.746094 53.78125 418.070312 C 53.914062 417.394531 53.984375 416.714844 53.984375 416.027344 C 53.984375 415.339844 53.914062 414.65625 53.78125 413.980469 C 53.648438 413.304688 53.449219 412.652344 53.183594 412.015625 C 52.921875 411.378906 52.597656 410.773438 52.214844 410.203125 C 51.835938 409.632812 51.398438 409.101562 50.914062 408.613281 C 50.425781 408.128906 49.898438 407.695312 49.324219 407.3125 C 48.753906 406.929688 48.148438 406.605469 47.511719 406.34375 C 46.875 406.078125 46.222656 405.878906 45.546875 405.746094 C 44.871094 405.613281 44.191406 405.542969 43.5 405.542969 Z M 43.5 405.542969 "/>
</g>
</svg>
